<svg xmlns="http://www.w3.org/2000/svg" width="185" height="40" viewBox="0 0 185 40">
  <path fill="#FFFFFE" fill-rule="evenodd" d="M66.9044756,36.1357906 L66.4739041,34.9125762 C66.186855,34.0970958 65.8574059,33.1576765 65.4855469,32.0942901 C65.1136878,31.0309037 64.7842387,30.0914844 64.4971896,29.2760041 L64.0666181,28.0527896 L52.8326168,28.0527896 L49.9947593,36.1357906 L46.2957589,36.1357906 L56.7077601,7.8942158 L60.1914748,7.8942158 L70.603476,36.1357906 L66.9044756,36.1357906 Z M58.3909032,12.1803592 L57.9309745,13.4818593 C57.6243539,14.3495304 57.2492386,15.4226865 56.8056173,16.7013597 C56.3619959,17.9800329 55.9151194,19.2586869 55.4649742,20.5373602 C55.0148291,21.8160334 54.6364519,22.8891894 54.3298313,23.7568605 L53.8699026,25.0583607 L63.0293323,25.0583607 L58.5083318,12.1803592 L58.3909032,12.1803592 Z M74.0306028,36.1357906 L77.4360318,36.1357906 L77.4360318,6.66121565 L74.0306028,6.66121565 L74.0306028,36.1357906 Z M82.4982342,36.1357906 L85.9036632,36.1357906 L85.9036632,6.66121565 L82.4982342,6.66121565 L82.4982342,36.1357906 Z M99.5320148,36.3315049 C96.5701901,36.3315049 94.2085944,35.356205 92.4471568,33.405576 C90.6857192,31.4549469 89.8050136,28.8487108 89.8050136,25.5867893 C89.8050136,22.3118202 90.6857192,19.7023222 92.4471568,17.758217 C94.2085944,15.8141118 96.5701901,14.8420738 99.5320148,14.8420738 C102.493839,14.8420738 104.855435,15.8141118 106.616873,17.758217 C108.37831,19.7023222 109.259016,22.3118202 109.259016,25.5867893 C109.259016,28.8487108 108.37831,31.4549469 106.616873,33.405576 C104.855435,35.356205 102.493839,36.3315049 99.5320148,36.3315049 Z M99.5320148,33.2979331 C101.502215,33.2979331 103.038557,32.6162017 104.141087,31.2527186 C105.243616,29.8892354 105.794873,28.0006112 105.794873,25.5867893 C105.794873,23.1599198 105.243616,21.2680337 104.141087,19.9110744 C103.038557,18.554115 101.502215,17.8756456 99.5320148,17.8756456 C97.5618142,17.8756456 96.0254722,18.5573769 94.9229428,19.9208601 C93.8204133,21.2843433 93.2691569,23.1729674 93.2691569,25.5867893 C93.2691569,28.0006112 93.8236752,29.8892354 94.9327285,31.2527186 C96.0417818,32.6162017 97.5748619,33.2979331 99.5320148,33.2979331 Z M130.458912,21.9073603 C130.250149,20.0545889 129.375967,18.413867 127.83634,16.9851454 C126.296713,15.5564238 124.222163,14.8420738 121.612625,14.8420738 C118.729087,14.8420738 116.403372,15.8238974 114.63541,17.7875741 C112.867449,19.7512508 111.983481,22.3509632 111.983481,25.5867893 C111.983481,28.9009015 112.870711,31.5201852 114.645196,33.4447188 C116.419681,35.3692525 118.755182,36.3315049 121.651768,36.3315049 C124.06559,36.3315049 126.071642,35.6856541 127.669983,34.3939332 C129.268325,33.1022123 130.211006,31.4321336 130.498055,29.3836469 L127.15134,29.3836469 C126.864291,30.6492724 126.247797,31.6180486 125.30184,32.2900044 C124.355883,32.9619602 123.145728,33.2979331 121.67134,33.2979331 C119.831616,33.2979331 118.334416,32.6129399 117.179696,31.2429329 C116.024976,29.8729258 115.447625,27.9875635 115.447625,25.5867893 C115.447625,23.2512536 116.018452,21.3822006 117.160125,19.9795744 C118.301797,18.5769481 119.792473,17.8756456 121.632197,17.8756456 C123.224014,17.8756456 124.483097,18.2670703 125.409483,19.0499314 C126.335869,19.8327926 126.903434,20.7852593 127.112197,21.9073603 L130.458912,21.9073603 Z M141.144441,33.3762188 C142.866735,33.3762188 144.292174,32.8771523 145.420798,31.8790044 C146.549423,30.8808564 147.113727,29.6250355 147.113727,28.1115039 L147.113727,26.4087894 L141.594584,26.7610752 C138.384853,26.9567905 136.780012,28.0853984 136.780012,30.1469327 C136.780012,31.1255092 137.174698,31.9083586 137.964083,32.4955044 C138.753468,33.0826503 139.813577,33.3762188 141.144441,33.3762188 Z M140.420298,36.3315049 C138.280477,36.3315049 136.558209,35.7639391 135.25344,34.6287904 C133.948671,33.4936417 133.296297,31.9931804 133.296297,30.1273613 C133.296297,26.4087708 135.93189,24.3864099 141.203155,24.0602177 L147.113727,23.707932 L147.113727,21.9465032 C147.113727,20.6286869 146.696207,19.6207683 145.861156,18.9227171 C145.026104,18.2246659 143.832258,17.8756456 142.279584,17.8756456 C141.053101,17.8756456 140.019088,18.1659522 139.177512,18.7465742 C138.335936,19.3271962 137.810775,20.1198313 137.602012,21.1245031 L134.333583,21.1245031 C134.385774,19.3369701 135.178409,17.8430325 136.711512,16.6426454 C138.244615,15.4422583 140.113668,14.8420738 142.318727,14.8420738 C144.810835,14.8420738 146.800577,15.4585677 148.288013,16.691574 C149.775449,17.9245803 150.519156,19.5783497 150.519156,21.6529317 L150.519156,36.1357906 L147.28987,36.1357906 L147.28987,32.475933 L147.211584,32.475933 C146.611391,33.6502247 145.698066,34.5863821 144.471584,35.2844333 C143.245102,35.9824845 141.894686,36.3315049 140.420298,36.3315049 Z M156.151529,10.2819304 L156.151529,15.0377881 L153.215814,15.0377881 L153.215814,17.8560741 L156.151529,17.8560741 L156.151529,30.6557899 C156.151529,32.6781812 156.559263,34.1231908 157.374744,34.9908619 C158.190224,35.858533 159.550425,36.292362 161.455387,36.292362 C161.859865,36.292362 162.274123,36.2760527 162.698173,36.2434335 C163.122223,36.2108142 163.438624,36.1684099 163.647387,36.1162192 L163.647387,33.2392188 C163.529958,33.2522665 163.308151,33.2718377 162.981959,33.2979331 C162.655766,33.3240285 162.388293,33.337076 162.17953,33.337076 C161.27924,33.337076 160.617079,33.1087449 160.19303,32.6520759 C159.76898,32.1954069 159.556958,31.4843187 159.556958,30.5187899 L159.556958,17.8560741 L163.666959,17.8560741 L163.666959,15.0377881 L159.556958,15.0377881 L159.556958,10.2819304 L156.151529,10.2819304 Z M175.144363,17.8365027 C173.487307,17.8365027 172.114058,18.3844973 171.024577,19.4805029 C169.935095,20.5765085 169.331649,22.0182562 169.214219,23.8057891 L180.820078,23.8057891 C180.780935,22.0182562 180.242726,20.5765085 179.205435,19.4805029 C178.168144,18.3844973 176.814467,17.8365027 175.144363,17.8365027 Z M180.741792,30.1077899 L184.108078,30.1077899 C183.821029,31.9214182 182.855515,33.4120939 181.211506,34.5798618 C179.567498,35.7476297 177.616898,36.3315049 175.359649,36.3315049 C172.397824,36.3315049 170.046014,35.3692525 168.304148,33.4447188 C166.562282,31.5201852 165.691362,28.9269965 165.691362,25.6650751 C165.691362,22.3901059 166.55902,19.7675604 168.294362,17.7973598 C170.029704,15.8271593 172.332586,14.8420738 175.203077,14.8420738 C178.021377,14.8420738 180.252498,15.7684456 181.896507,17.621217 C183.540515,19.4739883 184.362507,21.9986777 184.362507,25.1953607 L184.362507,26.526218 L169.214219,26.526218 L169.214219,26.7219323 C169.214219,28.7312759 169.781785,30.3361172 170.916934,31.5365043 C172.052083,32.7368914 173.559068,33.337076 175.437934,33.337076 C176.755751,33.337076 177.894144,33.0467693 178.853149,32.4661473 C179.812154,31.8855253 180.441695,31.099414 180.741792,30.1077899 Z M26.4931158,12.6238431 C26.9414649,11.9800452 27.8896974,11.9743192 28.3494985,12.6123911 L36.8156417,24.458044 C37.5571641,25.4982748 37.321442,26.9467725 36.2869372,27.6995561 L19.9984487,39.550935 C19.5903728,39.8498344 19.1074766,39.9992841 18.6247713,39.9992841 C18.1418752,39.9992841 17.6591699,39.8498344 17.251094,39.550935 L0.962605476,27.6995561 C-0.0776253956,26.9467725 -0.307621396,25.4982748 0.433900978,24.458044 L17.5728975,0.508111934 C18.0326987,-0.158590165 19.0097522,-0.170233116 19.4926484,0.479290858 L22.2571812,4.20942516 C22.7055302,4.81294993 22.7169823,5.6405538 22.2860023,6.25553065 L10.2563526,23.1820911 C9.65282779,24.026873 9.84255063,25.2051015 10.6816066,25.8143523 L16.9235644,30.3549124 C17.9349742,31.0907087 19.3086516,31.0907087 20.3202522,30.3549124 L26.5448411,25.8259953 C27.39554,25.2110184 27.5850719,24.021147 26.9758211,23.1649129 L23.728583,18.6127099 C23.2974121,18.0091852 23.291686,17.2046763 23.7171309,16.5954255 L26.4931158,12.6238431 Z"/>
</svg>
