<svg xmlns="http://www.w3.org/2000/svg" width="111" height="24" viewBox="0 0 111 24">
  <path fill="#FFFFFE" fill-rule="evenodd" d="M40.1434039,21.6818624 L39.8850564,20.9479206 C39.7128238,20.4586236 39.5151508,19.894962 39.2920314,19.2569187 C39.068912,18.6188755 38.871239,18.0552138 38.6990064,17.5659168 L38.4406589,16.831975 L31.7001375,16.831975 L29.9973925,21.6818624 L27.7779525,21.6818624 L34.0252651,4.73661426 L36.1155313,4.73661426 L42.3628439,21.6818624 L40.1434039,21.6818624 Z M35.035169,7.30834631 L34.7592069,8.08926038 C34.5752312,8.60987236 34.350158,9.25377752 34.0839804,10.0209952 C33.8178029,10.7882128 33.5496721,11.555419 33.2795802,12.3226366 C33.0094883,13.0898543 32.7824579,13.7337595 32.5984822,14.2543715 L32.3225201,15.0352855 L37.8182763,15.0352855 L35.1056274,7.30834631 L35.035169,7.30834631 Z M44.4191567,21.6818624 L46.4624507,21.6818624 L46.4624507,3.99680093 L44.4191567,3.99680093 L44.4191567,21.6818624 Z M49.4998265,21.6818624 L51.5431205,21.6818624 L51.5431205,3.99680093 L49.4998265,3.99680093 L49.4998265,21.6818624 Z M59.7202778,21.7992931 C57.9431511,21.7992931 56.5261684,21.2141027 55.4692869,20.0437043 C54.4124054,18.873306 53.8839726,17.3095363 53.8839726,15.3523484 C53.8839726,13.3873317 54.4124054,11.8216049 55.4692869,10.6551209 C56.5261684,9.4886369 57.9431511,8.90540365 59.7202778,8.90540365 C61.4974044,8.90540365 62.9143872,9.4886369 63.9712686,10.6551209 C65.0281501,11.8216049 65.5565829,13.3873317 65.5565829,15.3523484 C65.5565829,17.3095363 65.0281501,18.873306 63.9712686,20.0437043 C62.9143872,21.2141027 61.4974044,21.7992931 59.7202778,21.7992931 Z M59.7202778,19.9791175 C60.9024193,19.9791175 61.8242409,19.5700713 62.4857704,18.7519668 C63.1473,17.9338622 63.4780598,16.8006674 63.4780598,15.3523484 C63.4780598,13.8962006 63.1473,12.7610486 62.4857704,11.9468585 C61.8242409,11.1326683 60.9024193,10.7255793 59.7202778,10.7255793 C58.5381363,10.7255793 57.6163146,11.1346254 56.9547851,11.95273 C56.2932556,12.7708345 55.9624958,13.9040293 55.9624958,15.3523484 C55.9624958,16.8006674 56.2952127,17.9338622 56.9606566,18.7519668 C57.6261005,19.5700713 58.545965,19.9791175 59.7202778,19.9791175 Z M78.2767483,13.1446515 C78.1514883,12.0329687 77.6269698,11.048518 76.7031771,10.1912697 C75.7793844,9.33402137 74.5346316,8.90540365 72.9688813,8.90540365 C71.2387272,8.90540365 69.8432731,9.49450837 68.7824773,10.6727355 C67.7216814,11.8509626 67.1912914,13.410818 67.1912914,15.3523484 C67.1912914,17.3408513 67.7236386,18.9124496 68.7883488,20.0671905 C69.853059,21.2219313 71.2543845,21.7992931 72.9923674,21.7992931 C74.4406864,21.7992931 75.644339,21.4117757 76.603361,20.6367293 C77.5623831,19.8616829 78.1280019,18.8596177 78.3002345,17.6305037 L76.2921697,17.6305037 C76.1199372,18.3898926 75.7500342,18.9711687 75.1824497,19.3743494 C74.6148652,19.7775301 73.8887594,19.9791175 73.0041105,19.9791175 C71.9002565,19.9791175 71.0019207,19.5681142 70.3090762,18.7460952 C69.6162317,17.9240763 69.2698146,16.7928387 69.2698146,15.3523484 C69.2698146,13.9510018 69.6123174,12.82955 70.2973331,11.9879592 C70.9823489,11.1463684 71.8767703,10.7255793 72.9806243,10.7255793 C73.935732,10.7255793 74.6911952,10.9604383 75.2470366,11.4301634 C75.802878,11.8998885 76.1434235,12.4713788 76.2686836,13.1446515 L78.2767483,13.1446515 Z M84.6881802,20.0260897 C85.7215754,20.0260897 86.5768537,19.7266445 87.2540407,19.127745 C87.9312278,18.5288455 88.2698162,17.7753394 88.2698162,16.8672042 L88.2698162,15.8455573 L84.9582708,16.0569325 C83.0323979,16.1743638 82.0694759,16.8515406 82.0694759,18.0884834 C82.0694759,18.6756398 82.3062921,19.1453578 82.7799316,19.4976516 C83.253571,19.8499455 83.8896476,20.0260897 84.6881802,20.0260897 Z M84.2536867,21.7992931 C82.9697714,21.7992931 81.9363917,21.4587475 81.1535165,20.7776461 C80.3706414,20.0965447 79.9792097,19.1962518 79.9792097,18.0767403 C79.9792097,15.8455461 81.5605938,14.6321078 84.7234094,14.436389 L88.2698162,14.2250138 L88.2698162,13.1681376 C88.2698162,12.3774337 88.0192999,11.7726717 87.5182598,11.3538335 C87.0172197,10.9349953 86.3008996,10.7255793 85.3692782,10.7255793 C84.6333756,10.7255793 84.0129563,10.8997664 83.5080018,11.2481459 C83.0030473,11.5965253 82.6879448,12.0721148 82.5626848,12.6749287 L80.6015923,12.6749287 C80.6329073,11.6023897 81.1084968,10.7060111 82.0283752,9.98576597 C82.9482535,9.26552082 84.0697053,8.90540365 85.3927643,8.90540365 C86.8880559,8.90540365 88.0819226,9.27530662 88.9744003,10.0151236 C89.866878,10.7549407 90.3131101,11.7472201 90.3131101,12.9919916 L90.3131101,21.6818624 L88.3755038,21.6818624 L88.3755038,19.4859086 L88.3285315,19.4859086 C87.9684089,20.1904962 87.4204046,20.7522007 86.6845019,21.1710389 C85.9485992,21.5898771 85.1383356,21.7992931 84.2536867,21.7992931 Z M93.6925944,6.16926864 L93.6925944,9.02283434 L91.9311341,9.02283434 L91.9311341,10.7138362 L93.6925944,10.7138362 L93.6925944,18.3938032 C93.6925944,19.6072597 93.9372392,20.4742809 94.4265362,20.9948929 C94.9158332,21.5155049 95.7319683,21.775807 96.874966,21.775807 C97.1176573,21.775807 97.3662165,21.7660212 97.6206509,21.7464493 C97.8750853,21.7268774 98.0649297,21.7014344 98.1901897,21.6701194 L98.1901897,19.9438882 C98.119731,19.951717 97.9866442,19.96346 97.7909254,19.9791175 C97.5952066,19.994775 97.4347196,20.0026036 97.3094596,20.0026036 C96.7692757,20.0026036 96.3719725,19.8656025 96.1175381,19.5915962 C95.8631037,19.3175899 95.7358884,18.8909293 95.7358884,18.3116017 L95.7358884,10.7138362 L98.2019328,10.7138362 L98.2019328,9.02283434 L95.7358884,9.02283434 L95.7358884,6.16926864 L93.6925944,6.16926864 Z M105.088499,10.7020932 C104.094247,10.7020932 103.270283,11.0308958 102.616583,11.6885109 C101.962882,12.3461261 101.600808,13.2111902 101.530349,14.2837291 L108.493989,14.2837291 C108.470502,13.2111902 108.147571,12.3461261 107.525185,11.6885109 C106.9028,11.0308958 106.090579,10.7020932 105.088499,10.7020932 Z M108.447016,18.0649973 L110.466824,18.0649973 C110.294592,19.1531937 109.715273,20.0476152 108.72885,20.7482885 C107.742427,21.4489617 106.572046,21.7992931 105.217672,21.7992931 C103.440546,21.7992931 102.029434,21.2219313 100.984296,20.0671905 C99.9391578,18.9124496 99.4165965,17.3565086 99.4165965,15.3993207 C99.4165965,13.434304 99.9372007,11.8607485 100.978425,10.678607 C102.019649,9.49646553 103.401403,8.90540365 105.123728,8.90540365 C106.814738,8.90540365 108.153435,9.46123668 109.139857,10.5729194 C110.12628,11.6846021 110.619484,13.1994429 110.619484,15.117487 L110.619484,15.9160157 L101.530349,15.9160157 L101.530349,16.0334464 C101.530349,17.2390741 101.870894,18.2019961 102.551996,18.9222413 C103.233097,19.6424864 104.137304,20.0026036 105.264645,20.0026036 C106.055349,20.0026036 106.738397,19.8284165 107.31381,19.480037 C107.889223,19.1316576 108.266955,18.6599824 108.447016,18.0649973 Z M15.896154,7.57444145 C16.1651683,7.18815578 16.7341179,7.18472009 17.0100035,7.56757008 L22.0897804,14.675089 C22.5347018,15.2992387 22.393266,16.1683529 21.772552,16.6200311 L11.999284,23.7309858 C11.7544341,23.9103286 11.4646912,24 11.1750628,24 C10.8853199,24 10.5956916,23.9103286 10.3508417,23.7309858 L0.577573623,16.6200311 C-0.046576071,16.1683529 -0.184576141,15.2992387 0.260345247,14.675089 L10.5439272,0.304872617 C10.8198128,-0.0951558019 11.4060555,-0.102141698 11.6957984,0.287579662 L13.3545477,2.5257003 C13.623562,2.88782165 13.6304334,3.38439285 13.3718407,3.75338557 L6.15392168,13.9095036 C5.79180034,14.4163819 5.90563608,15.1233316 6.40907866,15.4888886 L10.1543204,18.2132734 C10.7611771,18.6547591 11.5853983,18.6547591 12.1923696,18.2132734 L15.9271897,15.4958745 C16.4376182,15.1268818 16.5513394,14.4129462 16.1857824,13.8991965 L14.2374046,11.1678259 C13.9786974,10.8057045 13.9752618,10.3229906 14.2305333,9.95743353 L15.896154,7.57444145 Z"/>
</svg>
