<svg xmlns="http://www.w3.org/2000/svg" xmlns:xlink="http://www.w3.org/1999/xlink" width="185" height="40" viewBox="0 0 185 40">
  <defs>
    <path id="logo-a" d="M26.4617368,12.6088912 L23.6890399,16.5757696 C23.2640989,17.1842988 23.2698181,17.9878547 23.7004784,18.5906647 L26.9438704,23.1374759 C27.5523996,23.9926959 27.3630921,25.181158 26.5134008,25.7954064 L20.2961845,30.3189594 C19.285782,31.0538842 17.9137317,31.0538842 16.9035198,30.3189594 L10.6689551,25.7837773 C9.83089291,25.1752481 9.64139478,23.9984151 10.2442047,23.1546337 L22.2596063,6.24812147 C22.6900759,5.63387301 22.6786374,4.80724937 22.2308193,4.20443943 L19.4695609,0.478723176 C18.9872367,-0.170031488 18.0113404,-0.158402327 17.5520838,0.507510115 L0.433387057,24.4290754 C-0.307257043,25.4680742 -0.0775334545,26.9148562 0.961465347,27.6667481 L17.2306614,39.5040901 C17.638254,39.8026354 18.1203876,39.9519081 18.6027118,39.9519081 C19.0848454,39.9519081 19.5671696,39.8026354 19.9747621,39.5040901 L36.2439582,27.6667481 C37.2772378,26.9148562 37.5126806,25.4680742 36.7720365,24.4290754 L28.3159208,12.5974527 C27.8566642,11.9601365 26.9095549,11.9658558 26.4617368,12.6088912"/>
  </defs>
  <g fill="none" fill-rule="evenodd">
    <path fill="#41497B" d="M67.0707938,35.9261511 L66.6407323,34.7043855 C66.3540232,33.889871 66.0249643,32.9515644 65.6535457,31.8894375 C65.2821271,30.8273106 64.9530682,29.889004 64.6663591,29.0744895 L64.2362976,27.8527238 L53.015602,27.8527238 L50.1811058,35.9261511 L46.4864865,35.9261511 L56.8861555,7.71802624 L60.3657441,7.71802624 L70.7654131,35.9261511 L67.0707938,35.9261511 Z M58.567305,11.999093 L58.1079212,13.2990516 C57.8016637,14.1656951 57.4269927,15.2375801 56.9838968,16.5147388 C56.5408009,17.7918975 56.0944537,19.0690371 55.6448417,20.3461958 C55.1952297,21.6233545 54.8173006,22.6952395 54.5110432,23.5618829 L54.0516593,24.8618416 L63.2002403,24.8618416 L58.6845945,11.999093 L58.567305,11.999093 Z M74.1884807,35.9261511 L77.5898763,35.9261511 L77.5898763,6.48648649 L74.1884807,6.48648649 L74.1884807,35.9261511 Z M82.6460829,35.9261511 L86.0474784,35.9261511 L86.0474784,6.48648649 L82.6460829,6.48648649 L82.6460829,35.9261511 Z M99.6596883,36.1216336 C96.7013716,36.1216336 94.342573,35.1474889 92.5832217,33.1991702 C90.8238704,31.2508516 89.944208,28.6477023 89.944208,25.3896443 C89.944208,22.1185541 90.8238704,19.5121468 92.5832217,17.5703443 C94.342573,15.6285417 96.7013716,14.657655 99.6596883,14.657655 C102.618005,14.657655 104.976804,15.6285417 106.736155,17.5703443 C108.495506,19.5121468 109.375169,22.1185541 109.375169,25.3896443 C109.375169,28.6477023 108.495506,31.2508516 106.736155,33.1991702 C104.976804,35.1474889 102.618005,36.1216336 99.6596883,36.1216336 Z M99.6596883,33.0916549 C101.627555,33.0916549 103.162078,32.410731 104.263301,31.0488627 C105.364525,29.6869945 105.915128,27.8006072 105.915128,25.3896443 C105.915128,22.9656492 105.364525,21.0760039 104.263301,19.7206518 C103.162078,18.3652997 101.627555,17.6876338 99.6596883,17.6876338 C97.6918213,17.6876338 96.157299,18.3685577 95.0560754,19.7304259 C93.9548518,21.0922942 93.4042482,22.9786814 93.4042482,25.3896443 C93.4042482,27.8006072 93.9581098,29.6869945 95.0658495,31.0488627 C96.1735892,32.410731 97.7048535,33.0916549 99.6596883,33.0916549 Z M130.549955,21.7145733 C130.341439,19.8639964 129.468293,18.2252178 127.93049,16.7981884 C126.392686,15.371159 124.320593,14.657655 121.714146,14.657655 C118.834023,14.657655 116.511062,15.6383158 114.745195,17.5996667 C112.979328,19.5610176 112.096407,22.1576508 112.096407,25.3896443 C112.096407,28.6998312 112.982586,31.3160125 114.754969,33.2382667 C116.527353,35.1605209 118.860087,36.1216336 121.753243,36.1216336 C124.164206,36.1216336 126.167881,35.4765478 127.76433,34.1863569 C129.360778,32.8961659 130.302343,31.2280653 130.589052,29.1820048 L127.246301,29.1820048 C126.959592,30.4461313 126.343828,31.41376 125.398991,32.08492 C124.454154,32.7560799 123.245433,33.0916549 121.772791,33.0916549 C119.935246,33.0916549 118.43982,32.407473 117.286468,31.0390886 C116.133115,29.6707043 115.556447,27.787575 115.556447,25.3896443 C115.556447,23.0568748 116.126599,21.1900356 117.266919,19.7890707 C118.40724,18.3881057 119.89615,17.6876338 121.733694,17.6876338 C123.323627,17.6876338 124.581218,18.0785949 125.506507,18.8605288 C126.431795,19.6424627 126.998689,20.5938014 127.207204,21.7145733 L130.549955,21.7145733 Z M141.222828,33.1698479 C142.943082,33.1698479 144.366832,32.6713725 145.49412,31.6744067 C146.621408,30.677441 147.185044,29.4231075 147.185044,27.9113686 L147.185044,26.2106708 L141.672437,26.5625393 C138.466508,26.7580228 136.863568,27.885294 136.863568,29.9443866 C136.863568,30.921804 137.257787,31.7037262 138.046237,32.2901766 C138.834687,32.876627 139.89354,33.1698479 141.222828,33.1698479 Z M140.499542,36.1216336 C138.362256,36.1216336 136.642028,35.55474 135.338804,34.4209359 C134.035581,33.2871317 133.383979,31.7884475 133.383979,29.9248384 C133.383979,26.2106523 136.016451,24.1906866 141.281472,23.8648808 L147.185044,23.5130123 L147.185044,21.7536698 C147.185044,20.4374144 146.768019,19.4306896 145.933956,18.7334652 C145.099893,18.0362408 143.907462,17.6876338 142.356626,17.6876338 C141.131596,17.6876338 140.098807,17.9775966 139.258228,18.5575309 C138.41765,19.1374652 137.89311,19.9291615 137.684594,20.9326433 L134.420037,20.9326433 C134.472166,19.1472275 135.263862,17.6550594 136.795149,16.456094 C138.326436,15.2571287 140.193275,14.657655 142.395723,14.657655 C144.884879,14.657655 146.872264,15.2734187 148.357939,16.5049647 C149.843613,17.7365106 150.586439,19.3883212 150.586439,21.4604461 L150.586439,35.9261511 L147.360978,35.9261511 L147.360978,32.2706284 L147.282785,32.2706284 C146.683302,33.4435292 145.77106,34.3785778 144.54603,35.0758023 C143.321,35.7730267 141.972185,36.1216336 140.499542,36.1216336 Z M156.212141,10.1029128 L156.212141,14.8531375 L153.279904,14.8531375 L153.279904,17.6680855 L156.212141,17.6680855 L156.212141,30.4526411 C156.212141,32.472637 156.619392,33.9159351 157.433907,34.7825785 C158.248421,35.6492219 159.607011,36.0825371 161.509717,36.0825371 C161.913716,36.0825371 162.327483,36.0662471 162.751031,36.0336665 C163.174579,36.0010859 163.490605,35.9587318 163.699121,35.9066029 L163.699121,33.0330101 C163.581831,33.0460423 163.360286,33.0655904 163.034481,33.0916549 C162.708675,33.1177193 162.441518,33.1307514 162.233002,33.1307514 C161.333778,33.1307514 160.672402,32.9026907 160.248855,32.4465626 C159.825307,31.9904345 159.613537,31.2801885 159.613537,30.3158034 L159.613537,17.6680855 L163.718669,17.6680855 L163.718669,14.8531375 L159.613537,14.8531375 L159.613537,10.1029128 L156.212141,10.1029128 Z M175.18248,17.6485373 C173.527386,17.6485373 172.155764,18.1958828 171.067573,19.2905903 C169.979382,20.3852978 169.37665,21.8253378 169.25936,23.6107536 L180.851472,23.6107536 C180.812375,21.8253378 180.274804,20.3852978 179.238742,19.2905903 C178.202679,18.1958828 176.850605,17.6485373 175.18248,17.6485373 Z M180.773279,29.9052901 L184.135578,29.9052901 C183.848869,31.7167703 182.884498,33.2056805 181.242437,34.3720652 C179.600376,35.53845 177.652086,36.1216336 175.39751,36.1216336 C172.439194,36.1216336 170.090169,35.1605209 168.350366,33.2382667 C166.610563,31.3160125 165.740675,28.7258953 165.740675,25.4678373 C165.740675,22.1967471 166.607305,19.5773078 168.340592,17.6094408 C170.073879,15.6415738 172.374033,14.657655 175.241124,14.657655 C178.056086,14.657655 180.284565,15.5829296 181.926626,17.4335065 C183.568687,19.2840835 184.389705,21.8057825 184.389705,24.9986793 L184.389705,26.3279603 L169.25936,26.3279603 L169.25936,26.5234428 C169.25936,28.5304065 169.826253,30.133347 170.960058,31.3323124 C172.093862,32.5312777 173.599062,33.1307514 175.475703,33.1307514 C176.791959,33.1307514 177.929004,32.8407886 178.886873,32.2608542 C179.844742,31.6809199 180.473538,30.8957397 180.773279,29.9052901 Z"/>
    <mask id="logo-b" fill="#fff">
      <use xlink:href="#logo-a"/>
    </mask>
    <use fill="#D8D8D8" xlink:href="#logo-a"/>
    <rect width="40.36" height="10.09" x="-1.441" y="-.36" fill="#AC8DC1" mask="url(#logo-b)"/>
    <rect width="40.36" height="10.09" x="-1.441" y="9.73" fill="#8777B6" mask="url(#logo-b)"/>
    <rect width="40.36" height="10.09" x="-1.441" y="19.82" fill="#565BA9" mask="url(#logo-b)"/>
    <rect width="40.36" height="10.09" x="-1.441" y="29.91" fill="#4052A3" mask="url(#logo-b)"/>
  </g>
</svg>
